<?xml version="1.0" encoding="UTF-8"?>
<svg width="50px" height="50px" viewBox="0 0 50 50" version="1.1" xmlns="http://www.w3.org/2000/svg" xmlns:xlink="http://www.w3.org/1999/xlink">
    <!-- Generator: Sketch 45 (43475) - http://www.bohemiancoding.com/sketch -->
    <title>menu</title>
    <desc>Created with Sketch.</desc>
    <defs></defs>
    <g id="Welcome" stroke="none" stroke-width="1" fill="none" fill-rule="evenodd">
        <g id="menu" transform="translate(-135.000000, -40.000000)">
            <g id="top-bar" transform="translate(135.000000, 40.000000)">
                <g id="menu">
                    <circle id="Oval" stroke="#FFD031" stroke-width="2" cx="25" cy="25" r="24"></circle>
                    <g id="Icon" transform="translate(14.500000, 13.750000)" fill="#FFFFFF">
                        <path d="M21.9792896,2.42050129 L1.42199854,22.9777923 C0.390396302,24.0093945 -0.984734629,24.3087484 -1.64749014,23.6459929 C-2.31024566,22.9832374 -2.01089179,21.6081064 -0.979289554,20.5765042 L19.5780015,0.0192131934 C20.6096037,-1.01238905 21.9847346,-1.31174291 22.6474901,-0.648987396 C23.3102457,0.0137681182 23.0108918,1.38889905 21.9792896,2.42050129 L21.9792896,2.42050129 Z M1.42199854,0.0192131934 L21.9792896,20.5765042 C23.0108918,21.6081064 23.3102457,22.9832374 22.6474901,23.6459929 C21.9847346,24.3087484 20.6096037,24.0093945 19.5780015,22.9777923 L-0.979289554,2.42050129 C-2.01089179,1.38889905 -2.31024566,0.0137681182 -1.64749014,-0.648987396 C-0.984734629,-1.31174291 0.390396302,-1.01238905 1.42199854,0.0192131934 L1.42199854,0.0192131934 Z" id="Shape"></path>
                    </g>
                </g>
            </g>
        </g>
    </g>
</svg>