<?xml version="1.0" encoding="UTF-8"?>
<svg width="347px" height="515px" viewBox="0 0 347 515" version="1.1" xmlns="http://www.w3.org/2000/svg" xmlns:xlink="http://www.w3.org/1999/xlink">
    <!-- Generator: Sketch 45 (43475) - http://www.bohemiancoding.com/sketch -->
    <title>Group</title>
    <desc>Created with Sketch.</desc>
    <defs>
        <linearGradient x1="0%" y1="50%" x2="100%" y2="50%" id="linearGradient-1">
            <stop stop-color="#FFC75E" offset="0%"></stop>
            <stop stop-color="#F03DA2" offset="100%"></stop>
        </linearGradient>
        <linearGradient x1="0%" y1="52.2282362%" x2="100%" y2="52.2282362%" id="linearGradient-2">
            <stop stop-color="#FFC75E" offset="0%"></stop>
            <stop stop-color="#F03DA2" offset="100%"></stop>
        </linearGradient>
        <linearGradient x1="13.0022321%" y1="50%" x2="100%" y2="50%" id="linearGradient-3">
            <stop stop-color="#5EFFAB" offset="0%"></stop>
            <stop stop-color="#783DF0" offset="100%"></stop>
        </linearGradient>
        <linearGradient x1="100%" y1="52.2282362%" x2="100%" y2="52.2282362%" id="linearGradient-4">
            <stop stop-color="#65CCBD" offset="0%"></stop>
            <stop stop-color="#2F2434" offset="100%"></stop>
        </linearGradient>
        <linearGradient x1="13.0022321%" y1="50%" x2="78.5990623%" y2="50%" id="linearGradient-5">
            <stop stop-color="#FF5E97" offset="0%"></stop>
            <stop stop-color="#B04E4E" offset="100%"></stop>
        </linearGradient>
        <linearGradient x1="100%" y1="52.2282362%" x2="100%" y2="52.2282362%" id="linearGradient-6">
            <stop stop-color="#E5597F" offset="0%"></stop>
            <stop stop-color="#2F2434" offset="100%"></stop>
        </linearGradient>
    </defs>
    <g id="Welcome" stroke="none" stroke-width="1" fill="none" fill-rule="evenodd">
        <g id="I)-page-3" transform="translate(-11.000000, -77.000000)">
            <g id="Group" transform="translate(-10.000000, 75.000000)">
                <g id="Lines" opacity="0.396688433" transform="translate(27.000000, 0.000000)">
                    <g id="bas-ligne" transform="translate(0.000000, 87.000000)">
                        <path d="M1.11785863,64.4828029 L307.982937,64.4828029" id="Line" stroke="#FFFFFF" opacity="0.5" stroke-linecap="square"></path>
                        <text id="1000-postes-de-drone" font-family="OpenSans, Open Sans" font-size="10" font-weight="normal" fill="#FFFFFF">
                            <tspan x="263.172852" y="31">1000 postes de </tspan>
                            <tspan x="269.623047" y="45">drones pour </tspan>
                            <tspan x="269.686523" y="59">800 d’avions </tspan>
                        </text>
                        <path d="M4.28514598,61.994395 C7.61896277,59.3414968 7.61896277,59.3414968 11.9890735,55.8639635 L20.6456507,48.9754573 C26.4630817,44.3462131 36.5253638,43.2686713 43.0263582,46.580421 L50.0497434,50.158288 C56.9557173,53.6763432 68.0540028,53.6419664 74.939397,50.0820432 L81.5715754,46.653039 C88.3074568,43.1704177 98.7584884,36.6273421 104.935714,32.0255485 L113.118751,25.9295034 C119.081354,21.4875951 129.417403,20.2067562 136.107862,23.0822172 L141.116371,25.2348013 C147.990133,28.1890429 158.884883,33.644007 165.430458,37.4087194 L173.014179,41.770526 C179.629931,45.5756016 190.831835,50.2382416 198.062138,52.1968944 L202.508088,53.4012801 C209.775424,55.369965 221.609218,55.9632855 229.005758,54.7296731 L233.451793,53.9881528 C240.665618,52.7850141 252.28497,53.5036062 259.333476,55.5885079 L264.845234,57.2188496 C265.214688,57.3281317 265.59347,57.0820466 265.691266,56.6692031 C265.789063,56.2563596 265.568841,55.8330932 265.199387,55.7238111 L259.687629,54.0934693 C252.457008,51.954699 240.647623,51.2243544 233.247491,52.458566 L228.801455,53.2000864 C221.581585,54.4042334 209.927895,53.8199429 202.834157,51.8982848 L198.388206,50.6938992 C191.264505,48.764124 180.16576,44.144423 173.647553,40.3954509 L166.063832,36.0336443 C159.473875,32.2434047 148.53354,26.765617 141.613195,23.7913543 L136.604686,21.6387703 C129.494932,18.5831024 118.687417,19.9223652 112.35105,24.6427127 L104.168014,30.7387578 C98.0501735,35.2963116 87.6615069,41.8003423 80.9904139,45.2494664 L74.3582354,48.6784706 C67.8390589,52.04905 57.1626825,52.0821199 50.623838,48.7510886 L43.6004529,45.1732216 C36.6498434,41.6324281 26.0627729,42.766168 19.8428386,47.7157057 L11.1862615,54.604212 C6.8161507,58.0817453 6.8161507,58.0817453 3.48233391,60.7346435 C0.900556767,62.789103 0.900556767,62.789103 0.290644272,63.2744434 C-0.0206656968,63.5221695 -0.0933166857,64.0049963 0.128373747,64.3528671 C0.350064179,64.7007378 0.782146377,64.7819211 1.09345635,64.5341949 C1.70336884,64.0488546 1.70336884,64.0488546 4.28514598,61.994395 Z" id="line-3" fill="#50E3C2" fill-rule="nonzero"></path>
                        <text id="Nombre-de-postes-de" font-family="AvenirNext-Regular, Avenir Next" font-size="12" font-weight="normal" fill="#FFFFFF">
                            <tspan x="0" y="12">Nombre de postes de drones pour avions</tspan>
                        </text>
                    </g>
                    <g id="haut-ligne" transform="translate(1.000000, 0.000000)">
                        <path d="M3.90966532,69.9247342 C7.13306614,69.1314043 7.13306614,69.1314043 11.3610608,68.0908279 L19.5303123,66.0802458 C25.3777166,64.6411071 34.6275631,61.7467336 40.2126915,59.6084848 L49.3278124,56.1187896 C54.8685252,53.9975452 64.0129502,50.9416469 69.7471833,49.2951471 L78.1640279,46.8783754 C83.8249028,45.2529393 93.2418312,44.4773281 99.1290665,45.1514885 L105.402767,45.8699039 C111.361653,46.5522691 120.939098,48.1280919 126.783795,49.3879304 L135.221631,51.2067266 C141.173295,52.4896221 150.830804,52.7274864 156.850616,51.7397723 L164.60596,50.4672971 C170.597206,49.4842701 179.86297,46.7246287 185.337055,44.2932117 L194.507443,40.220013 C199.918094,37.8167715 208.817049,34.1660854 214.377846,32.0684595 L223.877928,28.4848696 C229.318081,26.4327527 238.42281,25.8540193 244.117094,27.1976688 L251.797527,29.0099789 C252.147664,29.0925988 252.504616,28.8995486 252.594803,28.5787892 C252.68499,28.2580299 252.474259,27.9310265 252.124122,27.8484066 L244.443689,26.0360965 C238.475395,24.6277903 229.081174,25.2249249 223.379396,27.3757312 L213.879314,30.959321 C208.293958,33.0662107 199.37076,36.7268428 193.936212,39.1406986 L184.765824,43.2138973 C179.399606,45.5974029 170.248377,48.322932 164.375124,49.2865991 L156.61978,50.5590743 C150.775973,51.5179099 141.299087,51.2844943 135.521522,50.0391263 L127.083686,48.2203302 C121.193626,46.9507136 111.570287,45.3673396 105.565171,44.6796805 L99.2914704,43.9612651 C93.2181389,43.2657943 83.6122773,44.0569668 77.772422,45.7337944 L69.3555775,48.1505662 C63.582976,49.8080828 54.400755,52.8766118 48.8229391,55.0120611 L39.7078181,58.5017563 C34.1764301,60.6194308 24.9817583,63.4965395 19.1905948,64.9218364 L11.0213433,66.9324185 C6.79334864,67.9729949 6.79334864,67.9729949 3.56994783,68.7663249 C1.07428419,69.3805472 1.07428419,69.3805472 0.484975368,69.5255854 C0.135792229,69.6115249 -0.0712282837,69.9405114 0.022582112,70.2603973 C0.116392508,70.5802832 0.475509723,70.7699343 0.824692863,70.6839948 C1.41400169,70.5389565 1.41400169,70.5389565 3.90966532,69.9247342 Z" id="line-2" fill="#4A90E2" fill-rule="nonzero"></path>
                        <text id="Israel-premier-expor" font-family="OpenSans, Open Sans" font-size="10" font-weight="normal" fill="#FFFFFF">
                            <tspan x="256.441394" y="23">Israel premier </tspan>
                            <tspan x="254.139148" y="37">exportateur de </tspan>
                            <tspan x="245.013171" y="51">drone avec 60% de </tspan>
                            <tspan x="253.238269" y="65">part de marché </tspan>
                        </text>
                        <path d="M0.117858629,71.3062185 L306.616827,71.3062185" id="Line" stroke="#FFFFFF" opacity="0.5" stroke-linecap="square"></path>
                        <text id="Israel-premier-expor" font-family="AvenirNext-Regular, Avenir Next" font-size="12" font-weight="normal" fill="#FFFFFF">
                            <tspan x="0" y="12">Israel premier exportateur</tspan>
                        </text>
                    </g>
                </g>
                <g id="data-2" transform="translate(0.000000, 173.000000)">
                    <text id="Nombre-de-drones-ach" font-family="AvenirNext-Regular, Avenir Next" font-size="12" font-weight="normal" fill="#FFFFFF">
                        <tspan x="20" y="12">Nombre de drones acheté dans le temps par les États-Unis, </tspan>
                        <tspan x="20" y="28">l’Allemagne et la France</tspan>
                    </text>
                    <g id="Measure" transform="translate(0.000000, 43.000000)" font-size="9" font-family="OpenSans, Open Sans" font-weight="normal">
                        <text id="0" line-spacing="33" fill="#A41E68">
                            <tspan x="59.8607676" y="148.101038">0</tspan>
                        </text>
                        <text id="9" line-spacing="33" fill="#A41E68">
                            <tspan x="60.0011655" y="137.764436">9</tspan>
                        </text>
                        <text id="23" line-spacing="33" fill="#A41E68">
                            <tspan x="55.3746909" y="123.027482">23</tspan>
                        </text>
                        <text id="50" line-spacing="33" fill="#A41E68">
                            <tspan x="54.3746909" y="108.89988">50</tspan>
                        </text>
                        <text id="100" line-spacing="33" fill="#A41E68">
                            <tspan x="49.3746909" y="94.5815819">100</tspan>
                        </text>
                        <text id="200" line-spacing="33" fill="#A41E68">
                            <tspan x="50" y="74.5659517">200</tspan>
                        </text>
                        <text id="300" line-spacing="33" fill="#A41E68">
                            <tspan x="50" y="54.3507122">300</tspan>
                        </text>
                        <text id="432" line-spacing="33" fill="#A41E68">
                            <tspan x="50" y="34">432</tspan>
                        </text>
                        <text id="Nombre-de-drones" line-spacing="12" fill="#636363">
                            <tspan x="25.3678647" y="9.56933594">Nombre</tspan>
                            <tspan x="17.8048764" y="21.8693359">de drones</tspan>
                        </text>
                    </g>
                    <g id="Line-Chart" transform="translate(73.000000, 86.000000)" font-size="9" font-family="OpenSans, Open Sans" fill="#FFFFFF" opacity="0.5" font-weight="normal">
                        <text id="Etats-Unis">
                            <tspan x="245.731517" y="69">Etats-Unis</tspan>
                        </text>
                        <text id="France">
                            <tspan x="244.740794" y="99">France</tspan>
                        </text>
                        <text id="Allemagne">
                            <tspan x="250.742747" y="109">Allemagne</tspan>
                        </text>
                        <text id="De-2010-à-2017">
                            <tspan x="1.07524126" y="132">De 2010 à 2017</tspan>
                        </text>
                    </g>
                    <g id="Pink" transform="translate(75.000000, 188.000000)">
                        <path d="M1.77789054,11.3603409 C26.1315237,11.4006161 22.4784787,7.29254037 42.3672791,7.29254037 C62.2560795,7.29254037 54.1382018,9.34657825 82.9566677,9.3868535 C111.775134,9.42712875 101.627786,5.27877774 123.546056,5.27877774 C145.464326,5.27877774 146.682008,1.25125248 164.135445,1.25125248 C181.588882,1.25125248 174.282792,3.26501511 204.724834,3.30529036 C235.166875,3.34556561 222.584164,7.33281562 244.908328,7.33281562" id="Lineage" stroke="url(#linearGradient-1)" stroke-width="2" stroke-linecap="round"></path>
                        <path d="M1.37199665,12.3512431 C0.69948964,12.3512431 0.154314992,11.9066502 0.154314992,11.358217 C0.154314992,10.8097838 0.69948964,10.3651909 1.37199665,10.3651909 C2.04450366,10.3651909 2.58967831,10.8097838 2.58967831,11.358217 C2.58967831,11.9066502 2.04450366,12.3512431 1.37199665,12.3512431 Z M41.9613852,8.3237976 C41.2888782,8.3237976 40.7437036,7.87920467 40.7437036,7.3307715 C40.7437036,6.78233833 41.2888782,6.3377454 41.9613852,6.3377454 C42.6338923,6.3377454 43.1790669,6.78233833 43.1790669,7.3307715 C43.1790669,7.87920467 42.6338923,8.3237976 41.9613852,8.3237976 Z M82.5507738,10.2084072 C81.8782668,10.2084072 81.3330922,9.76381424 81.3330922,9.21538107 C81.3330922,8.6669479 81.8782668,8.22235497 82.5507738,8.22235497 C83.2232809,8.22235497 83.7684555,8.6669479 83.7684555,9.21538107 C83.7684555,9.76381424 83.2232809,10.2084072 82.5507738,10.2084072 Z M123.140162,6.16276607 C122.467655,6.16276607 121.922481,5.71817314 121.922481,5.16973997 C121.922481,4.6213068 122.467655,4.17671387 123.140162,4.17671387 C123.812669,4.17671387 124.357844,4.6213068 124.357844,5.16973997 C124.357844,5.71817314 123.812669,6.16276607 123.140162,6.16276607 Z M163.729551,2.15351613 C163.057044,2.15351613 162.511869,1.7089232 162.511869,1.16049003 C162.511869,0.612056854 163.057044,0.167463925 163.729551,0.167463925 C164.402058,0.167463925 164.947233,0.612056854 164.947233,1.16049003 C164.947233,1.7089232 164.402058,2.15351613 163.729551,2.15351613 Z M204.31894,4.33274324 C203.646433,4.33274324 203.101258,3.88815031 203.101258,3.33971714 C203.101258,2.79128397 203.646433,2.34669104 204.31894,2.34669104 C204.991447,2.34669104 205.536621,2.79128397 205.536621,3.33971714 C205.536621,3.88815031 204.991447,4.33274324 204.31894,4.33274324 Z M244.908328,8.34199318 C244.235821,8.34199318 243.690647,7.89740025 243.690647,7.34896708 C243.690647,6.80053391 244.235821,6.35594098 244.908328,6.35594098 C245.580835,6.35594098 246.12601,6.80053391 246.12601,7.34896708 C246.12601,7.89740025 245.580835,8.34199318 244.908328,8.34199318 Z" id="Dots" fill="url(#linearGradient-2)"></path>
                    </g>
                    <g id="Pink-Copy" transform="translate(75.000000, 182.000000)">
                        <path d="M1.77789054,11.3603409 C26.1315237,11.4006161 22.4784787,7.29254037 42.3672791,7.29254037 C62.2560795,7.29254037 54.1382018,9.34657825 82.9566677,9.3868535 C111.775134,9.42712875 101.627786,5.27877774 123.546056,5.27877774 C145.464326,5.27877774 146.682008,1.25125248 164.135445,1.25125248 C181.588882,1.25125248 174.282792,3.26501511 204.724834,3.30529036 C235.166875,3.34556561 222.584164,7.33281562 244.908328,7.33281562" id="Lineage" stroke="url(#linearGradient-3)" stroke-width="2" stroke-linecap="round"></path>
                        <path d="M1.37199665,12.3512431 C2.04450366,12.3512431 2.58967831,11.9066502 2.58967831,11.358217 C2.58967831,10.8097838 2.04450366,10.3651909 1.37199665,10.3651909 C0.69948964,10.3651909 0.154314992,10.8097838 0.154314992,11.358217 C0.154314992,11.9066502 0.69948964,12.3512431 1.37199665,12.3512431 Z M41.9613852,8.3237976 C42.6338923,8.3237976 43.1790669,7.87920467 43.1790669,7.3307715 C43.1790669,6.78233833 42.6338923,6.3377454 41.9613852,6.3377454 C41.2888782,6.3377454 40.7437036,6.78233833 40.7437036,7.3307715 C40.7437036,7.87920467 41.2888782,8.3237976 41.9613852,8.3237976 Z M84.7616256,10.2866572 C85.4341326,10.2866572 85.9793072,9.84206429 85.9793072,9.29363112 C85.9793072,8.74519795 85.4341326,8.30060502 84.7616256,8.30060502 C84.0891186,8.30060502 83.5439439,8.74519795 83.5439439,9.29363112 C83.5439439,9.84206429 84.0891186,10.2866572 84.7616256,10.2866572 Z M123.140162,6.16276607 C123.812669,6.16276607 124.357844,5.71817314 124.357844,5.16973997 C124.357844,4.6213068 123.812669,4.17671387 123.140162,4.17671387 C122.467655,4.17671387 121.922481,4.6213068 121.922481,5.16973997 C121.922481,5.71817314 122.467655,6.16276607 123.140162,6.16276607 Z M163.729551,2.15351613 C164.402058,2.15351613 164.947233,1.7089232 164.947233,1.16049003 C164.947233,0.612056854 164.402058,0.167463925 163.729551,0.167463925 C163.057044,0.167463925 162.511869,0.612056854 162.511869,1.16049003 C162.511869,1.7089232 163.057044,2.15351613 163.729551,2.15351613 Z M204.31894,4.33274324 C204.991447,4.33274324 205.536621,3.88815031 205.536621,3.33971714 C205.536621,2.79128397 204.991447,2.34669104 204.31894,2.34669104 C203.646433,2.34669104 203.101258,2.79128397 203.101258,3.33971714 C203.101258,3.88815031 203.646433,4.33274324 204.31894,4.33274324 Z M244.908328,8.34199318 C245.580835,8.34199318 246.12601,7.89740025 246.12601,7.34896708 C246.12601,6.80053391 245.580835,6.35594098 244.908328,6.35594098 C244.235821,6.35594098 243.690647,6.80053391 243.690647,7.34896708 C243.690647,7.89740025 244.235821,8.34199318 244.908328,8.34199318 Z" id="Dots" fill="url(#linearGradient-4)"></path>
                    </g>
                    <g id="Pink-Copy-2" transform="translate(75.000000, 114.000000)">
                        <path d="M1.77789054,72.6699369 C26.1315237,72.9532273 22.4784787,44.0576142 42.3672791,44.0576142 C62.2560795,44.0576142 54.1382018,58.5054207 82.9566677,58.7887111 C111.775134,59.0720014 101.627786,29.893098 123.546056,29.893098 C145.464326,29.893098 146.682008,1.5640656 164.135445,1.5640656 C181.588882,1.5640656 174.282792,15.7285818 204.724834,16.0118721 C235.166875,16.2951624 222.584164,44.3409045 244.908328,44.3409045" id="Lineage" stroke="url(#linearGradient-5)" stroke-width="2" stroke-linecap="round"></path>
                        <path d="M1.37199665,73.3498013 C2.04450366,73.3498013 2.58967831,72.9052084 2.58967831,72.3567752 C2.58967831,71.8083421 2.04450366,71.3637491 1.37199665,71.3637491 C0.69948964,71.3637491 0.154314992,71.8083421 0.154314992,72.3567752 C0.154314992,72.9052084 0.69948964,73.3498013 1.37199665,73.3498013 Z M41.9613852,45.2357456 C42.6338923,45.2357456 43.1790669,44.7911527 43.1790669,44.2427195 C43.1790669,43.6942864 42.6338923,43.2496934 41.9613852,43.2496934 C41.2888782,43.2496934 40.7437036,43.6942864 40.7437036,44.2427195 C40.7437036,44.7911527 41.2888782,45.2357456 41.9613852,45.2357456 Z M84.7616256,59.71113 C85.4341326,59.71113 85.9793072,59.2665371 85.9793072,58.7181039 C85.9793072,58.1696708 85.4341326,57.7250778 84.7616256,57.7250778 C84.0891186,57.7250778 83.5439439,58.1696708 83.5439439,58.7181039 C83.5439439,59.2665371 84.0891186,59.71113 84.7616256,59.71113 Z M123.140162,30.8750025 C123.812669,30.8750025 124.357844,30.4304095 124.357844,29.8819764 C124.357844,29.3335432 123.812669,28.8889503 123.140162,28.8889503 C122.467655,28.8889503 121.922481,29.3335432 121.922481,29.8819764 C121.922481,30.4304095 122.467655,30.8750025 123.140162,30.8750025 Z M163.729551,2.15351613 C164.402058,2.15351613 164.947233,1.7089232 164.947233,1.16049003 C164.947233,0.612056854 164.402058,0.167463925 163.729551,0.167463925 C163.057044,0.167463925 162.511869,0.612056854 162.511869,1.16049003 C162.511869,1.7089232 163.057044,2.15351613 163.729551,2.15351613 Z M204.31894,16.845268 C204.991447,16.845268 205.536621,16.4006751 205.536621,15.8522419 C205.536621,15.3038087 204.991447,14.8592158 204.31894,14.8592158 C203.646433,14.8592158 203.101258,15.3038087 203.101258,15.8522419 C203.101258,16.4006751 203.646433,16.845268 204.31894,16.845268 Z M244.908328,45.5667543 C245.580835,45.5667543 246.12601,45.1221614 246.12601,44.5737282 C246.12601,44.0252951 245.580835,43.5807021 244.908328,43.5807021 C244.235821,43.5807021 243.690647,44.0252951 243.690647,44.5737282 C243.690647,45.1221614 244.235821,45.5667543 244.908328,45.5667543 Z" id="Dots" fill="url(#linearGradient-6)"></path>
                    </g>
                </g>
                <g id="Cards" transform="translate(37.000000, 426.000000)">
                    <g id="Card-3" transform="translate(211.000000, 0.000000)">
                        <circle id="Marker" fill="#78EAD1" cx="5" cy="5" r="5"></circle>
                        <g id="Content" transform="translate(17.000000, 11.000000)" fill="#FFFFFF">
                            <text id="en-2017" opacity="0.5" font-family="OpenSans-Semibold, Open Sans" font-size="10" font-weight="500" letter-spacing="-0.166666687">
                                <tspan x="9.31380215" y="76">en 2017</tspan>
                            </text>
                            <text id="$30,000" font-family="OpenSans-Light, Open Sans" font-size="15" font-weight="300" letter-spacing="-0.25">
                                <tspan x="0.0776367188" y="46">$30,000</tspan>
                            </text>
                            <text id="1-h-de-vol" font-family="OpenSans-Semibold, Open Sans" font-size="11" font-weight="500" letter-spacing="-0.183333352">
                                <tspan x="0.0677898079" y="12">1 h de vol</tspan>
                            </text>
                        </g>
                    </g>
                    <g id="Card-2">
                        <circle id="Marker" fill="#F9A7E8" cx="5" cy="5" r="5"></circle>
                        <g id="Content" transform="translate(12.000000, 14.000000)" fill="#FFFFFF">
                            <text id="en-2014" opacity="0.5" font-family="OpenSans-Semibold, Open Sans" font-size="10" font-weight="500" letter-spacing="-0.166666687">
                                <tspan x="31.3138022" y="76">en 2014</tspan>
                            </text>
                            <text id="86Mds-$" font-family="OpenSans-Light, Open Sans" font-size="15" font-weight="300" letter-spacing="-0.25">
                                <tspan x="21.1550293" y="46">86Mds $</tspan>
                            </text>
                            <text id="Marché-des-drones" font-family="OpenSans-Semibold, Open Sans" font-size="11" font-weight="500" letter-spacing="-0.183333352">
                                <tspan x="0.131819822" y="12">Marché des drones</tspan>
                            </text>
                        </g>
                    </g>
                </g>
            </g>
        </g>
    </g>
</svg>