<?xml version="1.0" encoding="UTF-8"?>
<svg width="351px" height="481px" viewBox="0 0 351 481" version="1.1" xmlns="http://www.w3.org/2000/svg" xmlns:xlink="http://www.w3.org/1999/xlink">
    <!-- Generator: Sketch 45 (43475) - http://www.bohemiancoding.com/sketch -->
    <title>Group 2</title>
    <desc>Created with Sketch.</desc>
    <defs></defs>
    <g id="Welcome" stroke="none" stroke-width="1" fill="none" fill-rule="evenodd">
        <g id="III)-page-2" transform="translate(-12.000000, -114.000000)">
            <g id="Group-2" transform="translate(12.000000, 111.000000)">
                <g id="année" font-weight="normal" font-size="11" font-family="OpenSans-Italic, Open Sans" fill="#FFFFFF" font-style="italic">
                    <text id="2005">
                        <tspan x="0" y="418.717808">2005</tspan>
                    </text>
                    <text id="2006">
                        <tspan x="0" y="387.522566">2006</tspan>
                    </text>
                    <text id="2007">
                        <tspan x="0" y="356.327323">2007</tspan>
                    </text>
                    <text id="2008">
                        <tspan x="0" y="325.132081">2008</tspan>
                    </text>
                    <text id="2009">
                        <tspan x="0" y="293.936838">2009</tspan>
                    </text>
                    <text id="2010">
                        <tspan x="0" y="262.741596">2010</tspan>
                    </text>
                    <text id="2011">
                        <tspan x="0" y="231.546353">2011</tspan>
                    </text>
                    <text id="2012">
                        <tspan x="0" y="200.351111">2012</tspan>
                    </text>
                    <text id="2013">
                        <tspan x="0" y="169.155868">2013</tspan>
                    </text>
                    <text id="2014">
                        <tspan x="1" y="137.960626">2014</tspan>
                    </text>
                    <text id="2015">
                        <tspan x="1" y="106.765383">2015</tspan>
                    </text>
                    <text id="2016">
                        <tspan x="1" y="75.5701407">2016</tspan>
                    </text>
                    <text id="2017">
                        <tspan x="1" y="44.3748982">2017</tspan>
                    </text>
                    <text id="Année">
                        <tspan x="1" y="12">Année</tspan>
                    </text>
                </g>
                <g id="nbr-tués" transform="translate(29.000000, 426.000000)" font-weight="normal" font-size="11" font-family="OpenSans-Italic, Open Sans" fill="#FFFFFF" font-style="italic">
                    <text id="800">
                        <tspan x="301.089942" y="12">800</tspan>
                    </text>
                    <text id="700">
                        <tspan x="261.089942" y="12">700</tspan>
                    </text>
                    <text id="600">
                        <tspan x="221.089942" y="12">600</tspan>
                    </text>
                    <text id="500">
                        <tspan x="181.089942" y="12">500</tspan>
                    </text>
                    <text id="400">
                        <tspan x="140.544971" y="12">400</tspan>
                    </text>
                    <text id="300">
                        <tspan x="100" y="12">300</tspan>
                    </text>
                    <text id="200">
                        <tspan x="60" y="12">200</tspan>
                    </text>
                    <text id="100">
                        <tspan x="20" y="12">100</tspan>
                    </text>
                    <text id="0">
                        <tspan x="0" y="12">0</tspan>
                    </text>
                    <text id="nombre-de-tués">
                        <tspan x="266.277384" y="42">nombre de </tspan>
                        <tspan x="299.100138" y="57">tués</tspan>
                    </text>
                </g>
                <g id="Data" transform="translate(31.000000, 36.000000)">
                    <g id="Group" transform="translate(0.000000, 0.390456)">
                        <rect id="Rectangle-3" fill="#894545" x="0" y="0" width="5.91670846" height="9.18384595" rx="2.95835423"></rect>
                        <rect id="Rectangle-3" fill="#B75C5C" x="0.465882556" y="0" width="7.31435613" height="9.18384595" rx="3"></rect>
                        <rect id="Rectangle-3" fill="#EFABAB" x="5.91670846" y="0" width="7.03482659" height="9.18384595" rx="3"></rect>
                        <rect id="Rectangle-3" fill="#EA8F8F" x="4.05317824" y="0" width="2.79529534" height="9.18384595" rx="1.39764767"></rect>
                        <rect id="Rectangle-3" fill="#E57373" x="3.91341347" y="0" width="2.14305976" height="9.18384595" rx="1.07152988"></rect>
                    </g>
                    <g id="Group" transform="translate(0.000000, 31.790236)">
                        <rect id="Rectangle-3" fill="#903A57" x="0" y="0" width="2.59289051" height="8.63539333" rx="1.29644525"></rect>
                        <rect id="Rectangle-3" fill="#C04E74" x="0.826718712" y="0" width="3.26929673" height="8.63539333" rx="1.63464836"></rect>
                        <rect id="Rectangle-3" fill="#F6A0BD" x="2.59289051" y="0" width="7.51562466" height="8.63539333" rx="3"></rect>
                        <rect id="Rectangle-3" fill="#F381A7" x="1.08976558" y="0" width="2.63046863" height="8.63539333" rx="1.31523432"></rect>
                        <rect id="Rectangle-3" fill="#F06192" x="1.08976558" y="0" width="1.91648429" height="8.63539333" rx="0.958242144"></rect>
                    </g>
                    <g id="Group" transform="translate(0.000000, 62.948484)">
                        <rect id="Rectangle-3" fill="#6F3E78" x="0" y="0" width="14.1798673" height="8.63539333" rx="3"></rect>
                        <rect id="Rectangle-3" fill="#9453A0" x="3.26442989" y="0" width="14.9959748" height="8.63539333" rx="3"></rect>
                        <rect id="Rectangle-3" fill="#D5A4DE" x="14.1798673" y="0" width="20.4026868" height="8.63539333" rx="3"></rect>
                        <rect id="Rectangle-3" fill="#C786D3" x="10.09933" y="0" width="12.5476524" height="8.63539333" rx="3"></rect>
                        <rect id="Rectangle-3" fill="#BA68C8" x="3.97852392" y="0" width="9.48724936" height="8.63539333" rx="3"></rect>
                    </g>
                    <g id="Group" transform="translate(0.000000, 94.348264)">
                        <rect id="Rectangle-3" fill="#59467B" x="0" y="0" width="10.4589369" height="8.11969391" rx="3"></rect>
                        <rect id="Rectangle-3" fill="#775DA4" x="7.56603944" y="0" width="11.7941203" height="8.11969391" rx="3"></rect>
                        <rect id="Rectangle-3" fill="#BFACE1" x="18.9150986" y="0" width="36.0499526" height="8.11969391" rx="3"></rect>
                        <rect id="Rectangle-3" fill="#AA90D7" x="16.2447317" y="0" width="10.2364063" height="8.11969391" rx="3"></rect>
                        <rect id="Rectangle-3" fill="#9575CD" x="15.3546094" y="0" width="7.12097829" height="8.11969391" rx="3"></rect>
                    </g>
                    <g id="Group" transform="translate(0.000000, 125.748045)">
                        <rect id="Rectangle-3" fill="#485079" x="0" y="0" width="33.0106198" height="7.9711323" rx="3.98556615"></rect>
                        <rect id="Rectangle-3" fill="#616BA2" x="11.5537169" y="0" width="28.0590269" height="7.9711323" rx="3.98556615"></rect>
                        <rect id="Rectangle-3" fill="#AEB6DF" x="33.0106198" y="0" width="33.0106198" height="7.9711323" rx="3.98556615"></rect>
                        <rect id="Rectangle-3" fill="#939ED5" x="26.4084959" y="0" width="37.3020004" height="7.9711323" rx="3.98556615"></rect>
                        <rect id="Rectangle-3" fill="#7986CB" x="22.1171153" y="0" width="8.91286735" height="7.9711323" rx="3.98556615"></rect>
                    </g>
                    <g id="Group" transform="translate(0.000000, 156.357840)">
                        <rect id="Rectangle-3" fill="#2D7C87" x="0" y="0" width="44.0141598" height="8.63539333" rx="3"></rect>
                        <rect id="Rectangle-3" fill="#3DA6B4" x="5.37950842" y="0" width="58.1965001" height="8.63539333" rx="3"></rect>
                        <rect id="Rectangle-3" fill="#94E2ED" x="44.0141598" y="0" width="88.0283196" height="8.63539333" rx="3"></rect>
                        <rect id="Rectangle-3" fill="#70D9E7" x="24.452311" y="0" width="60.152685" height="8.63539333" rx="3"></rect>
                        <rect id="Rectangle-3" fill="#4DD0E1" x="14.1823404" y="0" width="41.0798825" height="8.63539333" rx="3"></rect>
                    </g>
                    <g id="Group" transform="translate(0.000000, 186.893173)">
                        <rect id="Rectangle-3" fill="#2E6D67" x="0" y="0" width="89.9510528" height="8.63539333" rx="3"></rect>
                        <rect id="Rectangle-3" fill="#3D9189" x="74.6593738" y="0" width="51.2721001" height="8.63539333" rx="3"></rect>
                        <rect id="Rectangle-3" fill="#94D3CD" x="98.9461581" y="0" width="101.64469" height="8.63539333" rx="3"></rect>
                        <rect id="Rectangle-3" fill="#70C4BC" x="98.0466476" y="0" width="35.9804211" height="8.63539333" rx="3"></rect>
                        <rect id="Rectangle-3" fill="#4CB6AC" x="94.4486055" y="0" width="17.0907" height="8.63539333" rx="3"></rect>
                    </g>
                    <g id="Group" transform="translate(0.000000, 218.841406)">
                        <rect id="Rectangle-3" fill="#4D774F" x="0" y="0" width="85.4449029" height="8.11969391" rx="3"></rect>
                        <rect id="Rectangle-3" fill="#679F69" x="20.6246317" y="0" width="123.74779" height="8.11969391" rx="3"></rect>
                        <rect id="Rectangle-3" fill="#B3DDB5" x="54.5079553" y="0" width="265.173837" height="8.11969391" rx="3"></rect>
                        <rect id="Rectangle-3" fill="#9AD29C" x="55.9811433" y="0" width="91.3376549" height="8.11969391" rx="3"></rect>
                        <rect id="Rectangle-3" fill="#80C784" x="45.6688274" y="0" width="20.6246317" height="8.11969391" rx="3"></rect>
                    </g>
                    <g id="Group" transform="translate(0.000000, 250.083190)">
                        <rect id="Rectangle-3" fill="#687F4D" x="0" y="0" width="81.3439475" height="7.9711323" rx="3"></rect>
                        <rect id="Rectangle-3" fill="#8BAA67" x="60.1237873" y="0" width="68.3760718" height="7.9711323" rx="3"></rect>
                        <rect id="Rectangle-3" fill="#CEE5B3" x="81.3439475" y="0" width="114.353086" height="7.9711323" rx="3"></rect>
                        <rect id="Rectangle-3" fill="#BEDD9A" x="89.596232" y="0" width="81.3439475" height="7.9711323" rx="3"></rect>
                        <rect id="Rectangle-3" fill="#AED581" x="77.8072541" y="0" width="36.5458315" height="7.9711323" rx="3"></rect>
                    </g>
                    <g id="Group" transform="translate(0.000000, 280.460526)">
                        <rect id="Rectangle-3" fill="#848A46" x="0" y="0" width="34.6809829" height="8.63539333" rx="3"></rect>
                        <rect id="Rectangle-3" fill="#B0B85D" x="3.15281663" y="0" width="39.4102078" height="8.63539333" rx="3"></rect>
                        <rect id="Rectangle-3" fill="#EAF0AC" x="34.6809829" y="0" width="26.6018903" height="8.63539333" rx="3"></rect>
                        <rect id="Rectangle-3" fill="#E3EB90" x="26.7989413" y="0" width="27.1930434" height="8.63539333" rx="3"></rect>
                        <rect id="Rectangle-3" fill="#DCE775" x="24.6313799" y="0" width="15.3699811" height="8.63539333" rx="3"></rect>
                    </g>
                    <g id="20-tué" transform="translate(0.000000, 311.544313)">
                        <rect id="Rectangle-3" fill="#997F2F" x="0" y="0" width="7.0641178" height="7.9711323" rx="3"></rect>
                        <rect id="Rectangle-3" fill="#CCAA3F" x="1.12128854" y="0" width="8.18540635" height="7.9711323" rx="3"></rect>
                        <rect id="Rectangle-3" fill="#FFE595" x="7.0641178" y="0" width="5.88676484" height="7.9711323" rx="2.94338242"></rect>
                        <rect id="Rectangle-3" fill="#FFDD72" x="7.51263322" y="0" width="4.1487676" height="7.9711323" rx="2.0743838"></rect>
                        <rect id="Rectangle-3" fill="#FFD54F" x="6.27921583" y="0" width="3.86844546" height="7.9711323" rx="1.93422273"></rect>
                    </g>
                    <g id="1-tué" transform="translate(0.000000, 373.445799)">
                        <rect id="Rectangle-3" fill="#FFA183" x="0" y="0" width="7.58138637" height="8.63539333" rx="3"></rect>
                        <rect id="Rectangle-3" fill="#99523C" x="0" y="0" width="6.00193088" height="8.63539333" rx="3"></rect>
                        <rect id="Rectangle-3" fill="#CC6E50" x="1.89534659" y="0" width="4.10658429" height="8.63539333" rx="2.05329214"></rect>
                        <rect id="Rectangle-3" fill="#FF8A65" x="3.15891099" y="0" width="2.84301989" height="8.63539333" rx="1.42150994"></rect>
                    </g>
                </g>
            </g>
        </g>
    </g>
</svg>