<?xml version="1.0" encoding="UTF-8"?>
<svg width="37px" height="44px" viewBox="0 0 37 44" version="1.1" xmlns="http://www.w3.org/2000/svg" xmlns:xlink="http://www.w3.org/1999/xlink">
    <!-- Generator: Sketch 45 (43475) - http://www.bohemiancoding.com/sketch -->
    <title>Group 4</title>
    <desc>Created with Sketch.</desc>
    <defs></defs>
    <g id="Welcome" stroke="none" stroke-width="1" fill="none" fill-rule="evenodd">
        <g id="chapitre-3" transform="translate(-142.000000, -272.000000)" fill-rule="nonzero" fill="#FFD031">
            <g id="top-bar">
                <g id="Group-4" transform="translate(142.174790, 271.424068)">
                    <g id="scroll">
                        <g id="Group-5" transform="translate(0.244686, 0.596517)">
                            <path d="M34.0039048,21.0181955 L31.0502704,19.541421 L31.0502704,5.50325096 C31.0502704,3.48992653 29.4121288,1.85264055 27.39966,1.85264055 C26.6492087,1.85264055 25.950436,2.08083044 25.3693946,2.4703019 C24.8703201,1.04965514 23.5138437,0.0273781296 21.9238727,0.0273781296 C20.3339017,0.0273781296 18.9773398,1.04965514 18.4782653,2.4703019 C17.8971383,2.08083044 17.1984511,1.85264055 16.4479999,1.85264055 C14.435531,1.85264055 12.7973895,3.48992653 12.7973895,5.50325096 L12.7973895,28.1037182 C12.7973895,28.563606 12.4943341,28.799753 12.3641966,28.8800088 C12.234059,28.9611201 11.8882235,29.1241985 11.4765063,28.9201366 L5.61561112,25.9896891 C5.08085792,25.7223125 4.4837311,25.5814799 3.88660428,25.5814799 C1.75469298,25.5814799 0.0202958175,27.315877 0.0202958175,29.4477883 L0.0202958175,30.1446787 C0.0202958175,30.3977667 0.125449688,30.639304 0.31085932,30.8122218 L10.8454975,40.6427825 C13.0487663,42.700684 15.922145,43.8343608 18.9399498,43.8343608 L27.3997455,43.8343608 C32.431816,43.8343608 36.5262288,39.739948 36.5262288,34.7078775 L36.5262288,25.0992608 C36.5261432,23.3595589 35.5600795,21.7962828 34.0039048,21.0181955 Z M34.7008808,34.7078775 C34.7008808,38.7336708 31.4263944,42.0090128 27.3997455,42.0090128 L18.9399498,42.0090128 C16.387423,42.0090128 13.9542532,41.0500506 12.0897185,39.3084663 L1.8456438,29.7481057 L1.8456438,29.4477883 C1.8456438,28.3220687 2.76182577,27.4067423 3.88660428,27.4067423 C4.20215145,27.4067423 4.51761306,27.4816077 4.79927827,27.6224403 L10.6601734,30.5528879 C11.5193721,30.9833428 12.5122163,30.9352578 13.3250411,30.4334454 C14.137866,29.9307774 14.6227374,29.0600281 14.6227374,28.1037182 L14.6227374,5.50325096 C14.6227374,4.49705933 15.4409526,3.67798854 16.4479999,3.67798854 C17.4551327,3.67798854 18.2732623,4.49705933 18.2732623,5.50325096 L18.2732623,17.3676706 C18.2732623,17.8721354 18.6814715,18.2803446 19.1859363,18.2803446 C19.6904011,18.2803446 20.0986103,17.8721354 20.0986103,17.3676706 L20.0986103,3.67798854 C20.0986103,2.6717969 20.9168255,1.85272611 21.9238727,1.85272611 C22.9310055,1.85272611 23.7491351,2.6717969 23.7491351,3.67798854 L23.7491351,17.3676706 C23.7491351,17.8721354 24.1573443,18.2803446 24.6618091,18.2803446 C25.1662739,18.2803446 25.5744831,17.8721354 25.5744831,17.3676706 L25.5744831,5.50325096 C25.5744831,4.49705933 26.3926983,3.67798854 27.3997455,3.67798854 C28.4067928,3.67798854 29.225008,4.49705933 29.225008,5.50325096 L29.225008,20.105607 C29.225008,20.4514426 29.4246206,20.768701 29.7330663,20.9238222 L33.187572,22.6511179 C34.1215506,23.1180216 34.7008808,24.0555937 34.7008808,25.0992608 L34.7008808,34.7078775 Z" id="Shape"></path>
                            <path d="M3.93828283,21.6634929 C4.11659094,21.8417154 4.35008558,21.9308695 4.58358022,21.9308695 C4.81707486,21.9308695 5.0505695,21.8417154 5.22887761,21.6634929 L8.87948801,18.0128824 C9.23601867,17.6563518 9.23601867,17.0788183 8.87948801,16.7223732 C8.52295736,16.3658426 7.94542389,16.3658426 7.5889788,16.7223732 L5.49633977,18.8150123 L5.49633977,4.59057697 C5.49633977,4.08611218 5.08813056,3.67790298 4.58366578,3.67790298 C4.07920099,3.67790298 3.67099179,4.08611218 3.67099179,4.59057697 L3.67099179,18.8150123 L1.57835276,16.7223732 C1.2218221,16.3658426 0.644288639,16.3658426 0.287843542,16.7223732 C-0.068687116,17.0789039 -0.068687116,17.6564373 0.287843542,18.0128824 L3.93828283,21.6634929 Z" id="Shape"></path>
                        </g>
                    </g>
                </g>
            </g>
        </g>
    </g>
</svg>