<?xml version="1.0" encoding="UTF-8"?>
<svg width="36px" height="36px" viewBox="0 0 36 36" version="1.1" xmlns="http://www.w3.org/2000/svg" xmlns:xlink="http://www.w3.org/1999/xlink">
    <!-- Generator: Sketch 45 (43475) - http://www.bohemiancoding.com/sketch -->
    <title>Group 2</title>
    <desc>Created with Sketch.</desc>
    <defs></defs>
    <g id="Welcome" stroke="none" stroke-width="1" fill="none" fill-rule="evenodd">
        <g id="I)-page-4" transform="translate(-247.000000, -97.000000)">
            <g id="Group-2" transform="translate(247.000000, 97.000000)">
                <g id="speaker-filled-audio-tool" transform="translate(9.037690, 11.250486)" fill-rule="nonzero" fill="#FFD031">
                    <path d="M8.5867429,12.2714401 C8.5867429,12.5737941 8.41204538,12.8484769 8.1386539,12.9766868 C8.03294991,13.0266795 7.91968246,13.0508457 7.8071529,13.0508457 C7.62895036,13.0508457 7.45240809,12.9896001 7.30980917,12.8713518 L3.04881302,9.34050644 L0.77940552,9.34050644 C0.349026093,9.34087539 0,8.99166482 0,8.56128539 L0,5.45602312 C0,5.02545921 0.349026093,4.67643312 0.77940552,4.67643312 L3.0489975,4.67643312 L7.30999364,1.14558776 C7.54280069,0.952627244 7.86563138,0.91148939 8.13883838,1.04062167 C8.41204538,1.16883157 8.58692737,1.44369884 8.58692737,1.74586836 L8.5867429,12.2714401 L8.5867429,12.2714401 Z M11.5820583,11.0535383 C11.5630574,11.0548296 11.5447944,11.0555675 11.525978,11.0555675 C11.3201042,11.0555675 11.1216095,10.9742142 10.9749521,10.8273724 L10.8707239,10.7227752 C10.5973324,10.4499372 10.5652338,10.017713 10.7954582,9.70742657 C11.3791361,8.92045759 11.6872088,7.98756914 11.6872088,7.00893097 C11.6872088,5.95631845 11.3374448,4.96900996 10.6755497,4.15363188 C10.4235573,3.84371442 10.4468011,3.3935962 10.7292318,3.11134994 L10.8332755,3.00712175 C10.9889722,2.85142512 11.197613,2.76656677 11.42341,2.78003342 C11.6433039,2.7911019 11.8486242,2.89459219 11.988087,3.0650468 C12.9062175,4.18849759 13.3912014,5.55250337 13.3912014,7.00911544 C13.3912014,8.36574223 12.9622978,9.65706499 12.1506092,10.7428829 C12.0150203,10.9238526 11.8076708,11.037489 11.5820583,11.0535383 Z M14.804462,13.4622242 C14.6635233,13.6288048 14.4596788,13.7287901 14.2414452,13.7380138 C14.2307457,13.7383828 14.2198617,13.7387517 14.2087932,13.7387517 C14.0023661,13.7387517 13.8042403,13.6572139 13.6575829,13.5105566 L13.5551994,13.4081731 C13.2690792,13.1222374 13.2497094,12.6649246 13.5098187,12.3553761 C14.7668291,10.8603933 15.4593471,8.96177992 15.4593471,7.00893097 C15.4593471,4.97768027 14.7179433,3.02224867 13.3722006,1.50291521 C13.0993625,1.19447355 13.1131981,0.727568135 13.4035612,0.436098142 L13.5057602,0.333714695 C13.6573984,0.18133861 13.8544174,0.0974026307 14.0803988,0.104597143 C14.2949429,0.110684808 14.497865,0.205504793 14.640464,0.365997764 C16.2671617,2.19746238 17.1631552,4.55689353 17.1631552,7.00893097 C17.1635242,9.36817764 16.3258246,11.6600911 14.804462,13.4622242 Z" id="Shape"></path>
                </g>
                <circle id="Oval" stroke="#FFFFFF" stroke-width="2" cx="18" cy="18" r="16.0867608"></circle>
            </g>
        </g>
    </g>
</svg>